<svg version="1.1" id="Layer_1" xmlns="http://www.w3.org/2000/svg" xmlns:xlink="http://www.w3.org/1999/xlink" x="0px" y="0px"
	 width="100%" viewBox="0 0 944 1024" enable-background="new 0 0 944 1024" xml:space="preserve">
<path fill="#000000" opacity="1.000000" stroke="none" 
	d="
M633.814331,695.920898 
	C594.895752,712.613525 556.291870,729.082214 517.781189,745.765808 
	C512.627502,747.998413 508.142090,748.003479 503.008331,745.766174 
	C481.938629,736.583862 460.740784,727.695190 439.580200,718.721924 
	C437.782227,717.959534 436.056000,716.773926 433.792145,717.302002 
	C432.512360,719.965210 433.082397,722.832825 433.069824,725.591797 
	C432.984802,744.256348 432.995483,762.921265 432.974945,781.586121 
	C432.974030,782.419373 432.920837,783.255859 432.975189,784.085388 
	C433.557770,792.978455 430.432861,798.329590 421.360352,802.127075 
	C383.571594,817.944153 346.141205,834.618713 308.290924,850.309937 
	C304.132965,852.033752 300.536591,852.146912 296.366547,850.421143 
	C256.964294,834.114197 217.885315,817.058167 178.775726,800.069519 
	C174.351868,798.147949 172.186203,795.315063 172.052826,790.677124 
	C171.971405,787.846069 171.847336,785.014404 171.846039,782.183044 
	C171.827652,742.020203 171.826111,701.857300 171.824936,661.694458 
	C171.824890,659.861450 171.978790,658.021729 171.869385,656.196655 
	C171.467316,649.489929 173.826538,645.161987 180.585938,642.447754 
	C196.655258,635.994873 212.419327,628.781616 228.302780,621.866455 
	C231.002350,620.691101 233.834564,619.737366 236.407272,617.572998 
	C233.985291,615.363708 231.295044,614.454529 228.750946,613.349915 
	C212.555923,606.317932 196.390305,599.213867 180.104416,592.397766 
	C174.131561,589.897888 171.669037,586.265259 171.713440,579.483032 
	C172.004745,534.989075 171.941422,490.492035 171.768311,445.996887 
	C171.747025,440.525482 173.718674,437.235687 178.590012,435.124176 
	C197.233780,427.042908 215.833466,418.859863 234.446198,410.707031 
	C235.191345,410.380676 235.901978,409.975494 237.508118,409.161163 
	C233.586319,407.354614 230.372360,405.809357 227.107239,404.381104 
	C210.932449,397.305573 194.790085,390.152252 178.529373,383.279327 
	C174.266586,381.477539 172.205002,378.707306 172.065674,374.251831 
	C171.987579,371.754425 171.830704,369.257324 171.829941,366.760040 
	C171.817520,325.763947 171.823486,284.767853 171.829803,243.771774 
	C171.830063,242.105453 171.956879,240.435440 171.882996,238.773453 
	C171.599594,232.400528 174.192383,228.562042 180.381638,225.890137 
	C218.612137,209.386002 256.749268,192.668625 295.216919,176.715088 
	C300.025848,174.720703 304.231323,174.701569 309.072113,176.707779 
	C348.310913,192.970001 387.213684,210.009659 426.179596,226.905334 
	C430.394104,228.732758 432.181824,231.400681 432.412506,236.009323 
	C433.688019,261.494720 432.935181,286.990021 432.944916,312.477509 
	C432.952728,332.965424 433.584961,353.462555 432.452515,373.949585 
	C432.199066,378.534698 430.311401,381.360474 426.167450,383.144562 
	C409.034363,390.520935 391.944275,397.997253 374.843445,405.448547 
	C372.570557,406.438904 370.326813,407.496185 367.592865,408.739227 
	C369.587036,410.968445 371.986969,411.674347 374.172821,412.624329 
	C390.822937,419.861023 407.393219,427.298126 424.212311,434.120789 
	C430.695740,436.750854 433.014954,440.989685 432.993317,447.500977 
	C432.931885,465.998840 433.014435,484.497162 433.049042,502.995300 
	C433.055573,506.494751 433.175110,509.995453 433.111359,513.493164 
	C433.035675,517.647339 434.746918,518.343262 438.386902,516.778748 
	C454.759857,509.741333 471.183014,502.820465 487.596649,495.877899 
	C492.965637,493.606964 498.456329,491.598907 503.715271,489.100098 
	C508.466217,486.842651 512.791870,487.148682 517.558350,489.207611 
	C539.116211,498.519562 560.770081,507.609528 582.405029,516.742371 
	C583.892151,517.370056 585.279236,518.490417 587.130676,518.137817 
	C589.024170,516.056519 588.582214,513.472107 588.585815,511.031403 
	C588.617188,489.533508 588.732361,468.034332 588.531799,446.538300 
	C588.476807,440.651550 590.303711,437.072632 596.043823,434.642090 
	C633.926819,418.601379 671.711609,402.326843 709.443665,385.933319 
	C715.639160,383.241547 721.179199,382.892120 727.551453,385.673981 
	C764.796631,401.933594 802.126343,418.003632 839.561096,433.821533 
	C846.926880,436.933929 849.453735,441.318726 849.375916,449.393799 
	C848.959900,492.552460 848.976196,535.718811 849.347534,578.878174 
	C849.412659,586.439209 846.336304,590.008545 839.983093,592.711182 
	C813.468994,603.989746 787.075256,615.550903 760.600220,626.921875 
	C748.971191,631.916504 737.176819,636.532227 725.611633,641.666931 
	C720.778381,643.812805 716.433228,643.673218 711.702759,641.643921 
	C690.579651,632.582336 669.402954,623.645447 648.233704,614.691711 
	C646.294495,613.871460 644.454956,612.559570 642.116089,612.971802 
	C640.672424,614.951538 641.219910,617.194397 641.209595,619.283020 
	C641.117249,638.114197 641.132751,656.945984 641.040405,675.777222 
	C641.022461,679.434448 640.485718,683.092102 640.525024,686.745972 
	C640.575073,691.401855 638.463135,694.298889 633.814331,695.920898 
M371.129730,684.727600 
	C353.528809,692.260437 335.993317,699.952698 318.284973,707.223999 
	C313.314392,709.264832 310.470703,711.674805 311.445648,717.458496 
	C311.965637,720.543091 311.745819,723.765015 311.734802,726.924561 
	C311.622681,759.068787 311.475342,791.213013 311.382507,823.357239 
	C311.377960,824.935852 310.827606,826.705627 312.287292,828.113586 
	C314.557892,828.391479 316.473907,827.269287 318.420227,826.434204 
	C348.870331,813.370361 379.273560,800.196228 409.785736,787.279358 
	C413.692810,785.625305 414.848846,783.457581 414.831085,779.414551 
	C414.678772,744.765137 414.716980,710.114990 414.694550,675.465027 
	C414.693695,674.132568 414.675446,672.799438 414.630951,671.467773 
	C414.509155,667.822632 413.033447,666.817749 409.499603,668.355713 
	C396.982208,673.803223 384.387238,679.072388 371.129730,684.727600 
M728.145325,599.499756 
	C728.145325,606.244385 728.145325,612.989075 728.145325,620.221436 
	C730.172485,619.706665 731.324768,619.570007 732.347717,619.131653 
	C763.718262,605.687744 795.046326,592.143799 826.472534,578.831543 
	C830.547852,577.105286 831.735962,574.749329 831.693054,570.516357 
	C831.333740,535.043579 831.186951,499.568756 830.927673,464.094879 
	C830.914978,462.367737 831.464417,460.415283 829.720337,458.811707 
	C828.816711,459.074402 827.840637,459.251923 826.951233,459.632111 
	C795.570374,473.046082 764.220520,486.533142 732.793640,499.838318 
	C729.027649,501.432739 728.166077,503.802307 728.176331,507.551239 
	C728.259399,537.867249 728.180481,568.183655 728.145325,599.499756 
M414.735992,515.500000 
	C414.713867,498.839478 414.726685,482.178772 414.652191,465.518494 
	C414.622894,458.964020 413.546417,458.311005 407.705475,460.806915 
	C379.075531,473.040802 350.439392,485.260254 321.808014,497.490906 
	C311.891113,501.727203 311.953491,501.735504 311.904907,512.468201 
	C311.751160,546.428650 311.529602,580.388794 311.385132,614.349243 
	C311.360840,620.061157 312.267670,620.624695 317.502625,618.386292 
	C348.276489,605.226990 379.009644,591.971741 409.838013,578.941589 
	C413.748077,577.289001 414.852631,575.007141 414.812073,570.979553 
	C414.629150,552.821289 414.734039,534.660095 414.735992,515.500000 
M413.739960,251.439850 
	C411.648102,249.891251 409.916199,251.495453 408.210205,252.225159 
	C379.432800,264.534363 350.816162,277.235077 321.835571,289.043274 
	C314.042175,292.218719 311.509979,295.824829 311.648254,304.437469 
	C312.174622,337.226562 311.570801,370.033630 311.409576,402.834106 
	C311.395264,405.749542 311.131042,408.753937 312.936951,411.462524 
	C313.926636,411.191528 314.581421,411.091431 315.171234,410.839355 
	C347.018768,397.228851 378.839355,383.554840 410.733826,370.055328 
	C414.265472,368.560547 414.679749,366.211273 414.675964,362.974182 
	C414.635498,328.489868 414.688873,294.005432 414.684875,259.521057 
	C414.684601,257.038086 414.959686,254.512054 413.739960,251.439850 
M609.208069,567.781006 
	C581.515015,579.637390 553.826904,591.505310 526.122498,603.335144 
	C522.846375,604.734009 519.990295,605.839783 519.982178,610.520630 
	C519.919373,646.820251 519.593140,683.119385 519.393982,719.418945 
	C519.385376,720.982117 518.834106,722.811157 520.543091,723.983765 
	C522.511108,724.160278 524.112244,723.175964 525.778870,722.464233 
	C556.241089,709.456421 586.663147,696.353271 617.198242,683.518982 
	C621.364197,681.767944 622.937195,679.658936 622.909912,675.068420 
	C622.700073,639.763916 622.772644,604.457825 622.713501,569.152283 
	C622.710266,567.219543 623.173950,565.179626 621.901794,563.031433 
	C617.637390,563.726929 613.908386,566.008179 609.208069,567.781006 
M190.697845,667.389771 
	C189.438568,669.736938 190.006439,672.287048 190.001419,674.734192 
	C189.930695,709.227966 190.058365,743.723022 189.764252,778.214600 
	C189.717682,783.674988 191.710129,786.098267 196.478973,788.109985 
	C226.709335,800.862305 256.821655,813.894348 286.985321,826.805054 
	C288.605469,827.498535 290.184662,828.691956 292.126312,827.923279 
	C293.155823,826.359314 292.836609,824.644897 292.836945,823.013794 
	C292.844269,787.186768 292.762543,751.359436 292.895050,715.532959 
	C292.909912,711.516724 291.416077,709.618958 287.857849,708.122253 
	C268.208618,699.856934 248.664169,691.342896 229.053146,682.986145 
	C216.506897,677.639832 203.907593,672.417969 190.697845,667.389771 
M190.202194,460.565979 
	C190.127136,497.870850 190.087067,535.175903 189.918991,572.480347 
	C189.903412,575.939270 191.488800,577.449036 194.416916,578.697266 
	C225.808487,592.078430 257.157379,605.559631 288.520233,619.008179 
	C289.723450,619.524170 290.911530,620.235474 292.534241,619.506531 
	C292.641174,618.480408 292.862823,617.346497 292.862457,616.212646 
	C292.850861,579.572327 292.778412,542.931946 292.852295,506.291809 
	C292.859253,502.834900 291.322327,501.256744 288.408966,500.013672 
	C257.176544,486.687225 225.980759,473.274811 194.754486,459.933868 
	C193.397125,459.354004 191.862167,457.795471 190.202194,460.565979 
M292.828949,334.500000 
	C292.813232,323.168701 292.512024,311.827332 292.909454,300.510559 
	C293.091888,295.314850 291.237244,292.797058 286.557159,290.820374 
	C256.641296,278.185028 226.841156,265.275757 196.989029,252.489105 
	C195.060959,251.663254 193.187912,250.343323 190.910110,251.015045 
	C189.755249,252.559784 190.089127,254.290985 190.086212,255.909073 
	C190.021515,291.902344 190.034805,327.895782 189.895981,363.888702 
	C189.882050,367.501862 191.381348,369.199097 194.544464,370.543060 
	C222.441727,382.396240 250.277374,394.394318 278.146210,406.314514 
	C282.798279,408.304291 287.522583,410.125153 292.829285,412.273376 
	C292.829285,386.101532 292.829285,360.800781 292.828949,334.500000 
M709.647217,538.500061 
	C709.641785,529.502014 709.127319,520.466187 709.792175,511.518005 
	C710.322510,504.380768 707.740417,500.912231 701.189392,498.192078 
	C671.506531,485.866852 642.044250,473.010498 612.487549,460.380646 
	C610.730103,459.629700 609.000366,458.348083 606.676636,459.295868 
	C606.565552,460.069946 606.350342,460.874725 606.349182,461.679871 
	C606.317932,482.341827 606.352966,503.003998 606.245422,523.665527 
	C606.230652,526.506836 607.485474,527.810425 609.916809,528.815491 
	C617.919800,532.123840 625.832336,535.650330 633.829712,538.972473 
	C637.877869,540.654114 640.169983,543.167969 640.553711,547.861267 
	C641.601929,560.683105 640.922791,573.507263 641.006836,586.325867 
	C641.032654,590.261414 642.379272,592.285767 645.996948,593.798767 
	C663.972656,601.316589 681.837830,609.098694 699.763855,616.736206 
	C702.751526,618.009155 705.612366,619.740051 709.647217,620.291565 
	C709.647217,593.043701 709.647217,566.271912 709.647217,538.500061 
M433.017151,685.448608 
	C433.034698,687.612793 433.161713,689.782959 433.042969,691.939636 
	C432.883392,694.837708 434.117065,696.486389 436.807404,697.625000 
	C456.114594,705.795898 475.366089,714.098267 494.661163,722.298035 
	C496.433716,723.051331 498.173645,724.304443 500.318573,723.682007 
	C501.350128,722.147278 501.050171,720.425964 501.048187,718.802673 
	C501.003967,682.678101 500.889862,646.553528 500.904755,610.428955 
	C500.906158,607.058777 499.563904,605.389343 496.546082,604.117188 
	C477.382568,596.038330 458.295410,587.778625 439.153046,579.649231 
	C437.431427,578.918091 435.722260,577.480713 433.163422,578.680420 
	C434.194183,587.470520 428.532043,591.175049 421.280060,593.919189 
	C414.906250,596.330994 408.774384,599.375244 402.446289,601.917786 
	C399.415436,603.135498 398.016998,604.895752 398.123871,608.274048 
	C398.323792,614.593567 398.277740,620.926453 398.127777,627.248901 
	C398.058716,630.161194 399.138062,631.787109 401.853699,632.915222 
	C409.381378,636.042175 416.669800,639.791077 424.314240,642.576599 
	C430.698914,644.903198 433.010468,649.163574 432.971100,655.496521 
	C432.911102,665.151367 432.993988,674.807068 433.017151,685.448608 
M378.499329,622.258179 
	C381.139008,619.172546 379.603241,615.803711 379.414551,611.751160 
	C375.297546,613.882874 370.979828,614.368958 367.802521,618.019226 
	C371.201050,620.070435 374.456940,621.250610 378.499329,622.258179 
z"/>
</svg>